<svg width="28" height="28" viewBox="0 0 28 28" fill="none" xmlns="http://www.w3.org/2000/svg">
<path d="M14 2.33301C7.56001 2.33301 2.33334 7.55967 2.33334 13.9997C2.33334 20.4397 7.56001 25.6663 14 25.6663C20.44 25.6663 25.6667 20.4397 25.6667 13.9997C25.6667 7.55967 20.44 2.33301 14 2.33301ZM14 5.83301C15.9367 5.83301 17.5 7.39634 17.5 9.33301C17.5 11.2697 15.9367 12.833 14 12.833C12.0633 12.833 10.5 11.2697 10.5 9.33301C10.5 7.39634 12.0633 5.83301 14 5.83301ZM14 22.3997C11.0833 22.3997 8.50501 20.9063 7.00001 18.643C7.03501 16.3213 11.6667 15.0497 14 15.0497C16.3217 15.0497 20.965 16.3213 21 18.643C19.495 20.9063 16.9167 22.3997 14 22.3997Z" fill="#1E40AF"/>
</svg>
