<svg width="14" height="14" viewBox="0 0 14 14" fill="none" xmlns="http://www.w3.org/2000/svg">
<g clip-path="url(#clip0_908_732)">
<path d="M7.00004 2.625C4.08337 2.625 1.59254 4.43917 0.583374 7C1.59254 9.56083 4.08337 11.375 7.00004 11.375C9.91671 11.375 12.4075 9.56083 13.4167 7C12.4075 4.43917 9.91671 2.625 7.00004 2.625ZM7.00004 9.91667C5.39004 9.91667 4.08337 8.61 4.08337 7C4.08337 5.39 5.39004 4.08333 7.00004 4.08333C8.61004 4.08333 9.91671 5.39 9.91671 7C9.91671 8.61 8.61004 9.91667 7.00004 9.91667ZM7.00004 5.25C6.03171 5.25 5.25004 6.03167 5.25004 7C5.25004 7.96833 6.03171 8.75 7.00004 8.75C7.96837 8.75 8.75004 7.96833 8.75004 7C8.75004 6.03167 7.96837 5.25 7.00004 5.25Z" fill="#9CA3AF"/>
</g>
<defs>
<clipPath id="clip0_908_732">
<rect width="14" height="14" fill="white"/>
</clipPath>
</defs>
</svg>
