<svg width="180" height="50" viewBox="0 0 180 50" fill="none" xmlns="http://www.w3.org/2000/svg">
<rect width="180" height="50" rx="6" fill="url(#paint0_linear_908_844)"/>
<path d="M22.0935 36H16L22.0935 14H28.2662L22.0935 36Z" fill="#1E40AF" stroke="#1E40AF"/>
<rect x="27.0791" y="32.0432" width="7.91366" height="3.95683" fill="#1E40AF"/>
<path d="M52.9212 19.3636H55.5007L58.9553 27.7955H59.0916L62.5462 19.3636H65.1257V31H63.103V23.0057H62.995L59.7791 30.9659H58.2678L55.0518 22.9886H54.9439V31H52.9212V19.3636ZM69.8416 31.1761C69.2886 31.1761 68.7905 31.0777 68.3473 30.8807C67.9079 30.6799 67.5594 30.3845 67.3018 29.9943C67.0481 29.6042 66.9212 29.1231 66.9212 28.5511C66.9212 28.0587 67.0121 27.6515 67.1939 27.3295C67.3757 27.0076 67.6238 26.75 67.9382 26.5568C68.2526 26.3636 68.6068 26.2178 69.0007 26.1193C69.3984 26.017 69.8094 25.9432 70.2337 25.8977C70.745 25.8447 71.1598 25.7973 71.478 25.7557C71.7962 25.7102 72.0272 25.642 72.1712 25.5511C72.3189 25.4564 72.3928 25.3106 72.3928 25.1136V25.0795C72.3928 24.6515 72.2659 24.3201 72.0121 24.0852C71.7583 23.8504 71.3928 23.733 70.9155 23.733C70.4117 23.733 70.0121 23.8428 69.7166 24.0625C69.425 24.2822 69.228 24.5417 69.1257 24.8409L67.2053 24.5682C67.3568 24.0379 67.6068 23.5947 67.9553 23.2386C68.3037 22.8788 68.7299 22.6098 69.2337 22.4318C69.7375 22.25 70.2943 22.1591 70.9041 22.1591C71.3246 22.1591 71.7431 22.2083 72.1598 22.3068C72.5765 22.4053 72.9571 22.5682 73.3018 22.7955C73.6465 23.0189 73.9231 23.3239 74.1314 23.7102C74.3435 24.0966 74.4496 24.5795 74.4496 25.1591V31H72.4723V29.8011H72.4041C72.2791 30.0436 72.103 30.2708 71.8757 30.483C71.6522 30.6913 71.37 30.8598 71.0291 30.9886C70.692 31.1136 70.2962 31.1761 69.8416 31.1761ZM70.3757 29.6648C70.7886 29.6648 71.1465 29.5833 71.4496 29.4205C71.7526 29.2538 71.9856 29.0341 72.1484 28.7614C72.3151 28.4886 72.3984 28.1913 72.3984 27.8693V26.8409C72.334 26.8939 72.2242 26.9432 72.0689 26.9886C71.9174 27.0341 71.7469 27.0739 71.5575 27.108C71.3681 27.142 71.1806 27.1723 70.995 27.1989C70.8094 27.2254 70.6484 27.2481 70.5121 27.267C70.2053 27.3087 69.9306 27.3769 69.6882 27.4716C69.4458 27.5663 69.2545 27.6989 69.1143 27.8693C68.9742 28.036 68.9041 28.2519 68.9041 28.517C68.9041 28.8958 69.0424 29.1818 69.3189 29.375C69.5954 29.5682 69.9477 29.6648 70.3757 29.6648ZM79.7564 31.1534C79.0708 31.1534 78.4571 30.9773 77.9155 30.625C77.3738 30.2727 76.9458 29.7614 76.6314 29.0909C76.317 28.4205 76.1598 27.6061 76.1598 26.6477C76.1598 25.678 76.3189 24.8598 76.6371 24.1932C76.959 23.5227 77.3928 23.017 77.9382 22.6761C78.4837 22.3314 79.0916 22.1591 79.7621 22.1591C80.2734 22.1591 80.6939 22.2462 81.0234 22.4205C81.353 22.5909 81.6143 22.7973 81.8075 23.0398C82.0007 23.2784 82.1503 23.5038 82.2564 23.7159H82.3416V19.3636H84.4041V31H82.3814V29.625H82.2564C82.1503 29.8371 81.9969 30.0625 81.7962 30.3011C81.5954 30.536 81.3303 30.7367 81.0007 30.9034C80.6712 31.0701 80.2564 31.1534 79.7564 31.1534ZM80.3303 29.4659C80.7659 29.4659 81.1371 29.3485 81.4439 29.1136C81.7507 28.875 81.9837 28.5436 82.1428 28.1193C82.3018 27.6951 82.3814 27.2008 82.3814 26.6364C82.3814 26.072 82.3018 25.5814 82.1428 25.1648C81.9875 24.7481 81.7564 24.4242 81.4496 24.1932C81.1465 23.9621 80.7734 23.8466 80.3303 23.8466C79.8719 23.8466 79.4893 23.9659 79.1825 24.2045C78.8757 24.4432 78.6446 24.7727 78.4893 25.1932C78.334 25.6136 78.2564 26.0947 78.2564 26.6364C78.2564 27.1818 78.334 27.6686 78.4893 28.0966C78.6484 28.5208 78.8814 28.8561 79.1882 29.1023C79.4988 29.3447 79.8795 29.4659 80.3303 29.4659ZM90.4595 31.1705C89.5845 31.1705 88.8288 30.9886 88.1925 30.625C87.5599 30.2576 87.0732 29.7386 86.7322 29.0682C86.3913 28.3939 86.2209 27.6004 86.2209 26.6875C86.2209 25.7898 86.3913 25.0019 86.7322 24.3239C87.0769 23.642 87.558 23.1117 88.1754 22.733C88.7929 22.3504 89.5182 22.1591 90.3516 22.1591C90.8894 22.1591 91.397 22.2462 91.8743 22.4205C92.3554 22.5909 92.7796 22.8561 93.147 23.2159C93.5182 23.5758 93.8099 24.0341 94.022 24.5909C94.2341 25.1439 94.3402 25.803 94.3402 26.5682V27.1989H87.1868V25.8125H92.3686C92.3648 25.4186 92.2796 25.0682 92.1129 24.7614C91.9463 24.4508 91.7133 24.2064 91.4141 24.0284C91.1186 23.8504 90.7739 23.7614 90.38 23.7614C89.9595 23.7614 89.5902 23.8636 89.272 24.0682C88.9538 24.2689 88.7057 24.5341 88.5277 24.8636C88.3535 25.1894 88.2644 25.5473 88.2607 25.9375V27.1477C88.2607 27.6553 88.3535 28.0909 88.5391 28.4545C88.7247 28.8144 88.9841 29.0909 89.3175 29.2841C89.6508 29.4735 90.041 29.5682 90.4879 29.5682C90.7872 29.5682 91.058 29.5265 91.3004 29.4432C91.5429 29.3561 91.7531 29.2292 91.9311 29.0625C92.1091 28.8958 92.2436 28.6894 92.3345 28.4432L94.255 28.6591C94.1338 29.1667 93.9027 29.6098 93.5618 29.9886C93.2247 30.3636 92.7929 30.6553 92.2663 30.8636C91.7398 31.0682 91.1375 31.1705 90.4595 31.1705ZM101.85 31L99.3842 22.2727H101.481L103.015 28.4091H103.094L104.663 22.2727H106.737L108.305 28.375H108.39L109.901 22.2727H112.004L109.532 31H107.39L105.754 25.1023H105.634L103.998 31H101.85ZM113.44 31V22.2727H115.496V31H113.44ZM114.474 21.0341C114.148 21.0341 113.868 20.9261 113.633 20.7102C113.398 20.4905 113.281 20.2273 113.281 19.9205C113.281 19.6098 113.398 19.3466 113.633 19.1307C113.868 18.911 114.148 18.8011 114.474 18.8011C114.803 18.8011 115.084 18.911 115.315 19.1307C115.549 19.3466 115.667 19.6098 115.667 19.9205C115.667 20.2273 115.549 20.4905 115.315 20.7102C115.084 20.9261 114.803 21.0341 114.474 21.0341ZM121.969 22.2727V23.8636H116.952V22.2727H121.969ZM118.191 20.1818H120.248V28.375C120.248 28.6515 120.29 28.8636 120.373 29.0114C120.46 29.1553 120.574 29.2538 120.714 29.3068C120.854 29.3598 121.009 29.3864 121.18 29.3864C121.308 29.3864 121.426 29.3769 121.532 29.358C121.642 29.339 121.725 29.322 121.782 29.3068L122.129 30.9148C122.019 30.9527 121.862 30.9943 121.657 31.0398C121.456 31.0852 121.21 31.1117 120.918 31.1193C120.403 31.1345 119.939 31.0568 119.526 30.8864C119.113 30.7121 118.786 30.4432 118.543 30.0795C118.305 29.7159 118.187 29.2614 118.191 28.7159V20.1818ZM125.934 25.8864V31H123.877V19.3636H125.888V23.7557H125.991C126.195 23.2633 126.512 22.875 126.94 22.5909C127.371 22.303 127.921 22.1591 128.587 22.1591C129.193 22.1591 129.722 22.286 130.173 22.5398C130.623 22.7936 130.972 23.1648 131.218 23.6534C131.468 24.142 131.593 24.7386 131.593 25.4432V31H129.536V25.7614C129.536 25.1742 129.385 24.7178 129.082 24.392C128.782 24.0625 128.362 23.8977 127.82 23.8977C127.457 23.8977 127.131 23.9773 126.843 24.1364C126.559 24.2917 126.335 24.517 126.173 24.8125C126.013 25.108 125.934 25.4659 125.934 25.8864ZM139.244 31H136.994L141.09 19.3636H143.692L147.795 31H145.545L142.437 21.75H142.346L139.244 31ZM139.317 26.4375H145.454V28.1307H139.317V26.4375ZM153.048 22.2727V23.8636H148.031V22.2727H153.048ZM149.269 20.1818H151.326V28.375C151.326 28.6515 151.368 28.8636 151.451 29.0114C151.538 29.1553 151.652 29.2538 151.792 29.3068C151.932 29.3598 152.087 29.3864 152.258 29.3864C152.387 29.3864 152.504 29.3769 152.61 29.358C152.72 29.339 152.803 29.322 152.86 29.3068L153.207 30.9148C153.097 30.9527 152.94 30.9943 152.735 31.0398C152.534 31.0852 152.288 31.1117 151.996 31.1193C151.481 31.1345 151.017 31.0568 150.604 30.8864C150.192 30.7121 149.864 30.4432 149.621 30.0795C149.383 29.7159 149.265 29.2614 149.269 28.7159V20.1818ZM154.768 31V22.2727H156.762V23.7273H156.853C157.012 23.2235 157.285 22.8352 157.671 22.5625C158.061 22.286 158.506 22.1477 159.006 22.1477C159.12 22.1477 159.247 22.1534 159.387 22.1648C159.531 22.1723 159.65 22.1856 159.745 22.2045V24.0966C159.658 24.0663 159.52 24.0398 159.33 24.017C159.145 23.9905 158.965 23.9773 158.79 23.9773C158.415 23.9773 158.078 24.0587 157.779 24.2216C157.484 24.3807 157.251 24.6023 157.08 24.8864C156.91 25.1705 156.825 25.4981 156.825 25.8693V31H154.768ZM161.112 31V22.2727H163.168V31H161.112ZM162.146 21.0341C161.82 21.0341 161.54 20.9261 161.305 20.7102C161.07 20.4905 160.952 20.2273 160.952 19.9205C160.952 19.6098 161.07 19.3466 161.305 19.1307C161.54 18.911 161.82 18.8011 162.146 18.8011C162.475 18.8011 162.755 18.911 162.987 19.1307C163.221 19.3466 163.339 19.6098 163.339 19.9205C163.339 20.2273 163.221 20.4905 162.987 20.7102C162.755 20.9261 162.475 21.0341 162.146 21.0341Z" fill="#1E3A8A"/>
<defs>
<linearGradient id="paint0_linear_908_844" x1="0" y1="25" x2="180" y2="25" gradientUnits="userSpaceOnUse">
<stop stop-color="#FFD6C1"/>
<stop offset="1" stop-color="#FCB7B8"/>
</linearGradient>
</defs>
</svg>
